<svg width="20" height="20" viewBox="0 0 20 20" fill="none" xmlns="http://www.w3.org/2000/svg">
<circle cx="10" cy="10" r="9" fill="url(#paint0_linear_2_37)" stroke="#F6F8FB" stroke-width="2"/>
<path d="M8.74961 8.94C8.74961 9.34333 8.85294 9.65167 9.05961 9.865C9.26961 10.075 9.56628 10.18 9.94961 10.18C10.1496 10.18 10.3279 10.1483 10.4846 10.085C10.6413 10.0217 10.7729 9.935 10.8796 9.825C10.9863 9.715 11.0663 9.585 11.1196 9.435C11.1763 9.285 11.2046 9.12333 11.2046 8.95C11.2046 8.75333 11.1746 8.57833 11.1146 8.425C11.0546 8.26833 10.9696 8.13667 10.8596 8.03C10.7496 7.92333 10.6179 7.84167 10.4646 7.785C10.3146 7.72833 10.1496 7.7 9.96961 7.7C9.78294 7.7 9.61461 7.73167 9.46461 7.795C9.31461 7.855 9.18628 7.94 9.07961 8.05C8.97294 8.16 8.89128 8.29167 8.83461 8.445C8.77794 8.595 8.74961 8.76 8.74961 8.94ZM10.3896 11.195C10.4463 11.125 10.4996 11.0567 10.5496 10.99C10.5996 10.9233 10.6479 10.8567 10.6946 10.79C10.5279 10.8967 10.3446 10.9783 10.1446 11.035C9.94461 11.0883 9.73461 11.115 9.51461 11.115C9.26461 11.115 9.01961 11.0717 8.77961 10.985C8.53961 10.8983 8.32628 10.7683 8.13961 10.595C7.95294 10.4183 7.80128 10.2017 7.68461 9.945C7.57128 9.685 7.51461 9.38167 7.51461 9.035C7.51461 8.71167 7.57461 8.40833 7.69461 8.125C7.81461 7.84167 7.98294 7.59333 8.19961 7.38C8.41628 7.16667 8.67628 6.99833 8.97961 6.875C9.28294 6.75167 9.61794 6.69 9.98461 6.69C10.3546 6.69 10.6863 6.74833 10.9796 6.865C11.2763 6.98167 11.5279 7.145 11.7346 7.355C11.9446 7.565 12.1046 7.81667 12.2146 8.11C12.3279 8.40333 12.3846 8.725 12.3846 9.075C12.3846 9.29833 12.3646 9.51 12.3246 9.71C12.2879 9.91 12.2346 10.1033 12.1646 10.29C12.0946 10.4733 12.0096 10.6533 11.9096 10.83C11.8096 11.0067 11.6979 11.1817 11.5746 11.355L9.91961 13.715C9.86294 13.795 9.77794 13.8633 9.66461 13.92C9.55128 13.9733 9.42294 14 9.27961 14H8.14461L10.3896 11.195Z" fill="white"/>
<defs>
<linearGradient id="paint0_linear_2_37" x1="2" y1="10" x2="18" y2="10" gradientUnits="userSpaceOnUse">
<stop stop-color="#3374AB"/>
<stop offset="0.598958" stop-color="#5AB1F3"/>
<stop offset="1" stop-color="#6BD8FE"/>
</linearGradient>
</defs>
</svg>
